Coordinates
version=1
nRows=26
nColumns=24
inDegrees=yes

Units are S.I. units (second, meters, Newtons, ...)
Angles are in degrees.

endheader
time	pelvis_tilt	pelvis_list	pelvis_rotation	pelvis_tx	pelvis_ty	pelvis_tz	hip_flexion_r	hip_adduction_r	hip_rotation_r	knee_angle_r	ankle_angle_r	subtalar_angle_r	mtp_angle_r	hip_flexion_l	hip_adduction_l	hip_rotation_l	knee_angle_l	ankle_angle_l	subtalar_angle_l	mtp_angle_l	lumbar_extension	lumbar_bending	lumbar_rotation
      4.47000000	      8.49884137	      1.36051013	      4.33613673	     -1.34921746	      0.88253915	      0.22257142	    -35.79980582	      3.01735531	     -7.35888070	     -6.76009133	     14.60327665	      4.51525808	      0.00000000	     16.39142174	      5.72759913	     10.18725688	     -8.59203619	      7.47224553	    -14.28077422	      0.00000000	    -26.84140952	     -1.79430104	     -0.82762161
      4.48000000	      8.40580200	      1.59990248	      4.45653941	     -1.33133714	      0.88126121	      0.22054279	    -35.15926439	      2.47194446	     -8.43517364	     -9.49371076	     12.90189188	      5.35938941	      0.00000000	     17.62620538	      6.25461692	      8.31512732	    -12.25611413	      7.39114460	    -12.68374573	      0.00000000	    -26.59695528	     -2.22471320	     -0.80279364
      4.49000000	      8.38578429	      1.83094047	      4.49219098	     -1.31347451	      0.88033856	      0.21866337	    -34.34935515	      1.85380188	     -9.21530189	    -12.53728251	     10.64666317	      5.68395075	      0.00000000	     18.63345452	      6.64785869	      6.77380635	    -15.66791821	      7.19132302	    -11.33190976	      0.00000000	    -26.44524643	     -2.66896663	     -0.74901739
      4.50000000	      8.43462105	      2.05556170	      4.48854829	     -1.29574618	      0.87977855	      0.21686016	    -33.33211430	      1.18542302	     -9.79383832	    -15.92456722	      7.92962620	      5.61618353	      0.00000000	     19.40287101	      6.96712243	      5.56481913	    -18.80843846	      7.11990355	    -10.21556705	      0.00000000	    -26.38799242	     -3.09692370	     -0.72858008
      4.51000000	      8.65417482	      2.34365243	      4.41820845	     -1.27822712	      0.87971945	      0.21519689	    -32.21757169	      0.40710791	    -10.19263564	    -19.63600605	      4.81902894	      5.13499316	      0.00000000	     19.78254101	      7.27525026	      4.48275816	    -21.63921730	      7.59247590	     -9.04103679	      0.00000000	    -26.55577490	     -3.58604268	     -0.73040371
      4.52000000	      8.94045424	      2.63675790	      4.30419122	     -1.26100849	      0.88003237	      0.21358308	    -30.86659924	     -0.43551571	    -10.45554925	    -23.69164666	      1.55706468	      4.47404102	      0.00000000	     19.83756688	      7.57218146	      3.63601827	    -24.09675996	      8.46218946	     -8.11838368	      0.00000000	    -26.81942756	     -4.04523449	     -0.78994668
      4.53000000	      9.25295123	      2.94641042	      4.12144856	     -1.24415170	      0.88068792	      0.21204262	    -29.24990265	     -1.37022261	    -10.60542338	    -28.05040184	     -1.55868627	      3.78293964	      0.00000000	     19.57998290	      7.86696628	      2.90092556	    -26.13417878	      9.73228602	     -7.32898102	      0.00000000	    -27.12735097	     -4.49524576	     -0.87818883
      4.54000000	      9.51069412	      3.28857125	      3.84855914	     -1.22766320	      0.88163307	      0.21059066	    -27.32148249	     -2.41372846	    -10.60679593	    -32.62454013	     -4.21869665	      3.20933684	      0.00000000	     19.06475253	      8.18141400	      2.22709740	    -27.68414973	     11.25896736	     -6.68613476	      0.00000000	    -27.37407300	     -4.96380512	     -1.00625565
      4.55000000	      9.66653842	      3.67510975	      3.45729232	     -1.21154105	      0.88287883	      0.20928943	    -25.08087508	     -3.55877957	    -10.39556959	    -37.29029506	     -6.14140627	      2.88063794	      0.00000000	     18.33712961	      8.51664208	      1.53985326	    -28.70646114	     12.89382444	     -6.13751953	      0.00000000	    -27.49425267	     -5.48375958	     -1.15933429
      4.56000000	      9.70715175	      4.10337428	      2.93331525	     -1.19575016	      0.88448433	      0.20819474	    -22.57118561	     -4.75832984	     -9.91700323	    -41.89139826	     -7.13844939	      2.88422525	      0.00000000	     17.41930006	      8.86382746	      0.80502449	    -29.17835314	     14.45946456	     -5.66202809	      0.00000000	    -27.45843800	     -6.06667668	     -1.32661126
      4.57000000	      9.63490236	      4.51997814	      2.31215051	     -1.18024704	      0.88648159	      0.20728291	    -19.85117539	     -5.91312888	     -9.22297192	    -46.26496622	     -7.19943438	      3.23325826	      0.00000000	     16.36514954	      9.16583146	     -0.01487301	    -29.17068280	     15.91754724	     -5.14764235	      0.00000000	    -27.25343727	     -6.64382146	     -1.43083798
      4.58000000	      9.49087633	      4.89053841	      1.61316369	     -1.16498849	      0.88894400	      0.20659108	    -17.00953117	     -6.92466391	     -8.30427318	    -50.28160143	     -6.36702965	      3.93256702	      0.00000000	     15.16179625	      9.39033123	     -0.91634372	    -28.71580866	     17.12804336	     -4.64687753	      0.00000000	    -26.92642561	     -7.18251867	     -1.52897087
      4.59000000	      9.25290672	      5.14442830	      0.91619156	     -1.14989864	      0.89180504	      0.20600261	    -14.07528225	     -7.67160295	     -7.24945123	    -53.84149861	     -4.80222249	      4.90264748	      0.00000000	     13.86162127	      9.50955048	     -1.74755861	    -27.87896585	     18.15657550	     -4.07365975	      0.00000000	    -26.43529653	     -7.57669420	     -1.57315037
      4.60000000	      9.01650990	      5.26257822	      0.25641517	     -1.13501333	      0.89508025	      0.20544286	    -11.18283470	     -8.14043724	     -6.18601247	    -56.90799064	     -2.77995358	      6.10083179	      0.00000000	     12.42537028	      9.51434717	     -2.52692926	    -26.76282699	     18.87651969	     -3.62503378	      0.00000000	    -25.93083670	     -7.77572064	     -1.66263277
      4.61000000	      8.68548942	      5.20026681	     -0.24140555	     -1.12026289	      0.89853957	      0.20475651	     -8.29548701	     -8.25975284	     -5.25728624	    -59.44604817	     -0.47282031	      7.27258673	      0.00000000	     10.97247186	      9.40659951	     -3.02799979	    -25.42833181	     19.38891781	     -3.22855017	      0.00000000	    -25.30188552	     -7.70474025	     -1.77674303
      4.62000000	      8.34617500	      4.98572912	     -0.56731592	     -1.10569089	      0.90215998	      0.20388855	     -5.52543841	     -8.10212136	     -4.54724449	    -61.47552189	      1.80635820	      8.34662326	      0.00000000	      9.44351160	      9.21943574	     -3.23661688	    -23.92648234	     19.64713376	     -3.07985106	      0.00000000	    -24.69753175	     -7.38362459	     -2.03422421
      4.63000000	      7.95100496	      4.64061934	     -0.67187549	     -1.09128406	      0.90574488	      0.20276643	     -2.84302430	     -7.71952277	     -4.13381746	    -63.02768329	      3.93263211	      9.17836264	      0.00000000	      7.91566150	      8.98407770	     -3.03761596	    -22.30732643	     19.66616344	     -3.22173436	      0.00000000	    -24.07466963	     -6.83137777	     -2.45545239
      4.64000000	      7.51059027	      4.20115141	     -0.55884146	     -1.07703289	      0.90919536	      0.20137971	     -0.26470179	     -7.19156978	     -4.03363941	    -64.13375996	      5.79904116	      9.66986665	      0.00000000	      6.39044808	      8.72856402	     -2.39441673	    -20.58499625	     19.43500302	     -3.80494917	      0.00000000	    -23.45443168	     -6.09389870	     -3.07836541
      4.65000000	      7.05175042	      3.73036767	     -0.24528454	     -1.06294063	      0.91242716	      0.19977662	      2.19070468	     -6.62840060	     -4.24439860	    -64.84234449	      7.44554840	      9.85492060	      0.00000000	      4.86978187	      8.47889429	     -1.40308774	    -18.80515561	     19.02294760	     -4.66385735	      0.00000000	    -22.87334534	     -5.26504309	     -3.92767846
      4.66000000	      6.57799999	      3.22367376	      0.23207328	     -1.04899932	      0.91539334	      0.19800834	      4.53137997	     -6.04539444	     -4.71391976	    -65.17264677	      8.78049351	      9.64341842	      0.00000000	      3.35820369	      8.21390410	     -0.04538933	    -16.97676728	     18.36096363	     -5.93594844	      0.00000000	    -22.32933614	     -4.35646943	     -4.91257058
      4.67000000	      6.14328924	      2.71659647	      0.79061388	     -1.03521232	      0.91808797	      0.19622041	      6.72583706	     -5.49191032	     -5.34543247	    -65.16475026	      9.86641356	      9.11499699	      0.00000000	      1.82863259	      7.92700011	      1.46227601	    -15.14461776	     17.54242419	     -7.48073999	      0.00000000	    -21.88265689	     -3.44391755	     -5.98981278
      4.68000000	      5.74710260	      2.23831532	      1.37431796	     -1.02156728	      0.92046598	      0.19450482	      8.79425754	     -5.00627317	     -6.07104959	    -64.85492726	     10.78046623	      8.38717092	      0.00000000	      0.31036976	      7.62571073	      2.95888838	    -13.35746827	     16.62544992	     -9.16429064	      0.00000000	    -21.53153873	     -2.58205583	     -7.10565354
      4.69000000	      5.41852437	      1.79432128	      1.94399651	     -1.00804048	      0.92256320	      0.19290711	     10.70604852	     -4.59563491	     -6.84578657	    -64.25118469	     11.59779893	      7.64512615	      0.00000000	     -1.22472471	      7.31269313	      4.38656482	    -11.62645275	     15.58584973	    -10.95986578	      0.00000000	    -21.30171579	     -1.78180244	     -8.17780740
      4.70000000	      5.11910898	      1.44347177	      2.45656288	     -0.99463197	      0.92430825	      0.19151546	     12.51926411	     -4.30293891	     -7.59376901	    -63.38478697	     12.30106849	      6.80111455	      0.00000000	     -2.71725852	      7.04887774	      5.64757583	     -9.99276616	     14.50097443	    -12.75546931	      0.00000000	    -21.15014702	     -1.13309332	     -9.22767153
      4.71000000	      4.88617203	      1.17434141	      2.88339419	     -0.98131705	      0.92577388	      0.19035199	     14.18136729	     -4.09905001	     -8.27873532	    -62.24083937	     12.94517756	      5.99265254	      0.00000000	     -4.23505913	      6.83142195	      6.80796063	     -8.42287876	     13.31087652	    -14.63387286	      0.00000000	    -21.12064152	     -0.62180583	    -10.18417160
      4.72000000	      4.70590723	      0.98125365	      3.21019866	     -0.96807232	      0.92695615	      0.18943069	     15.69909696	     -3.95732518	     -8.87257066	    -60.81314373	     13.55653316	      5.28209629	      0.00000000	     -5.77458295	      6.65927162	      7.91853131	     -6.91010862	     11.98467387	    -16.63668388	      0.00000000	    -21.18871420	     -0.24218965	    -11.01889911
